<svg width="60" height="30" viewBox="0 0 60 30" fill="none" xmlns="http://www.w3.org/2000/svg">
<path d="M24.3731 26.1853C24.5776 26.3988 24.7383 26.6516 24.8459 26.9291C24.9534 27.2066 25.0057 27.5032 24.9995 27.8015C24.9934 28.0998 24.9289 28.3939 24.81 28.6665C24.6911 28.9392 24.5201 29.1849 24.3069 29.3894C24.0937 29.5939 23.8427 29.7531 23.5685 29.8577C23.2943 29.9622 23.0025 30.01 22.7099 29.9983C22.4174 29.9865 22.1301 29.9155 21.8648 29.7893C21.5995 29.6632 21.3616 29.4844 21.1648 29.2634L9.41313 16.5376C9.02933 16.1212 8.81568 15.5713 8.81568 15C8.81568 14.4287 9.02933 13.8788 9.41313 13.4624L21.1648 0.736553C21.3616 0.515601 21.5995 0.33682 21.8648 0.210654C22.1301 0.0844871 22.4174 0.0134651 22.7099 0.00173597C23.0025 -0.00999318 23.2943 0.037806 23.5685 0.142341C23.8427 0.246876 24.0937 0.406051 24.3069 0.610568C24.5201 0.815085 24.6911 1.06084 24.81 1.33349C24.9289 1.60613 24.9934 1.90019 24.9995 2.1985C25.0057 2.4968 24.9534 2.79337 24.8459 3.07087C24.7383 3.34837 24.5776 3.60124 24.3731 3.81471L14.0433 14.9985L24.3731 26.1853ZM2.20346 0.0268996C1.61907 0.0268996 1.05861 0.263503 0.645386 0.684661C0.23216 1.10582 1.0473e-05 1.67703 1.0473e-05 2.27264V27.7244C1.0473e-05 28.32 0.23216 28.8912 0.645386 29.3123C1.05861 29.7335 1.61907 29.9701 2.20346 29.9701C2.78785 29.9701 3.3483 29.7335 3.76153 29.3123C4.17475 28.8912 4.4069 28.32 4.4069 27.7244V2.27264C4.4069 1.67703 4.17475 1.10582 3.76153 0.684661C3.3483 0.263503 2.78785 0.0268996 2.20346 0.0268996Z" fill="#F7ED62"/>
<path d="M30.6269 26.1853C30.4224 26.3988 30.2617 26.6516 30.1541 26.9291C30.0466 27.2066 29.9943 27.5032 30.0005 27.8015C30.0066 28.0998 30.0711 28.3939 30.19 28.6665C30.3089 28.9392 30.4799 29.1849 30.6931 29.3894C30.9063 29.5939 31.1573 29.7531 31.4315 29.8577C31.7057 29.9622 31.9975 30.01 32.2901 29.9983C32.5826 29.9865 32.8699 29.9155 33.1352 29.7893C33.4005 29.6632 33.6384 29.4844 33.8352 29.2634L45.5869 16.5376C45.9707 16.1212 46.1843 15.5713 46.1843 15C46.1843 14.4287 45.9707 13.8788 45.5869 13.4624L33.8352 0.736553C33.6384 0.515601 33.4005 0.33682 33.1352 0.210654C32.8699 0.0844871 32.5826 0.0134651 32.2901 0.00173597C31.9975 -0.00999318 31.7057 0.037806 31.4315 0.142341C31.1573 0.246876 30.9063 0.406051 30.6931 0.610568C30.4799 0.815085 30.3089 1.06084 30.19 1.33349C30.0711 1.60613 30.0066 1.90019 30.0005 2.1985C29.9943 2.4968 30.0466 2.79337 30.1541 3.07087C30.2617 3.34837 30.4224 3.60124 30.6269 3.81471L40.9567 14.9985L30.6269 26.1853ZM52.7965 0.0268996C53.3809 0.0268996 53.9414 0.263503 54.3546 0.684661C54.7678 1.10582 55 1.67703 55 2.27264V27.7244C55 28.32 54.7678 28.8912 54.3546 29.3123C53.9414 29.7335 53.3809 29.9701 52.7965 29.9701C52.2122 29.9701 51.6517 29.7335 51.2385 29.3123C50.8252 28.8912 50.5931 28.32 50.5931 27.7244V2.27264C50.5931 1.67703 50.8252 1.10582 51.2385 0.684661C51.6517 0.263503 52.2122 0.0268996 52.7965 0.0268996Z" fill="#F7ED62"/>
</svg>
