<svg width="153" height="31" viewBox="0 0 153 31" fill="none" xmlns="http://www.w3.org/2000/svg">
<path fill-rule="evenodd" clip-rule="evenodd" d="M17 27.6778C23.2904 26.3045 28 20.7022 28 14C28 6.26801 21.732 0 14 0C6.26801 0 0 6.26801 0 14C0 21.3958 5.73472 27.4521 13 27.9648V19.5H10V15.5H13V12.7C13 9.657 14.928 8 17.643 8C18.943 8 20.174 8.097 20.5 8.14V11.5H19C17 11.5 17 12.47 17 13.5V15.5H20.5L19.5 19.5H17V27.6778Z" fill="#666666"/>
<path fill-rule="evenodd" clip-rule="evenodd" d="M44 28C51.732 28 58 21.732 58 14C58 6.26801 51.732 0 44 0C36.268 0 30 6.26801 30 14C30 21.732 36.268 28 44 28ZM51.7658 9.37353C52.5468 9.27647 53.3007 9.07353 54 8.76471C53.4732 9.53235 52.8193 10.2029 52.0564 10.7324C52.0655 10.9 52.0655 11.0588 52.0655 11.2265C52.0655 16.2294 48.1329 22 40.9761 22C38.7782 22 36.7256 21.3735 35 20.2971C35.3088 20.3324 35.6176 20.35 35.9264 20.35C37.6829 20.3583 39.39 19.7857 40.7672 18.7265C39.9548 18.7121 39.1674 18.4507 38.5157 17.9791C37.8641 17.5074 37.381 16.8492 37.1343 16.0971C37.7156 16.209 38.3158 16.1879 38.8872 16.0353C37.1071 15.6912 35.7629 14.1559 35.7629 12.3206V12.2941C36.2897 12.5588 36.8891 12.7353 37.5339 12.7353C36.4804 12.0735 35.7992 10.9088 35.7992 9.59412C35.7992 8.90588 35.99 8.25294 36.326 7.69706C38.2424 9.98235 41.1214 11.4912 44.3547 11.65C44.2911 11.3765 44.2548 11.0853 44.2548 10.7853C44.2548 8.69412 45.9986 7 48.1329 7C49.2772 7 50.2854 7.44118 51.0029 8.2C51.8838 8.02353 52.7194 7.71471 53.4732 7.27353C53.1826 8.16471 52.565 8.90588 51.7658 9.37353Z" fill="#666666"/>
<path fill-rule="evenodd" clip-rule="evenodd" d="M74 28C81.732 28 88 21.732 88 14C88 6.26801 81.732 0 74 0C66.268 0 60 6.26801 60 14C60 21.732 66.268 28 74 28ZM69.8444 8.84561C70.1571 8.53322 70.3329 8.10941 70.3331 7.66741C70.3334 7.2254 70.158 6.80142 69.8456 6.48872C69.5332 6.17602 69.1094 6.00022 68.6674 6C68.2254 5.99978 67.8014 6.17515 67.4887 6.48754C67.176 6.79993 67.0002 7.22374 67 7.66574C66.9998 8.10774 67.1752 8.53173 67.4875 8.84443C67.7999 9.15713 68.2237 9.33293 68.6657 9.33315C69.1077 9.33337 69.5317 9.158 69.8444 8.84561ZM67.05 10.5672H70.3831V21H67.05V10.5672ZM72.333 10.5672H75.6495L75.6162 11.9672C76.9994 9.44231 82.8825 9.25065 82.8825 14.392V21H79.591V15.5253C79.591 12.1922 75.6162 12.4755 75.6162 15.5253V21H72.333V10.5672Z" fill="#666666"/>
<path fill-rule="evenodd" clip-rule="evenodd" d="M104 28C111.732 28 118 21.732 118 14C118 6.26801 111.732 0 104 0C96.268 0 90 6.26801 90 14C90 21.732 96.268 28 104 28ZM106.913 7.01725C106.543 7.00675 106.115 7.00225 105.271 7L103.729 7.00075C103.182 6.99892 102.635 7.00467 102.088 7.018L101.943 7.0225C101.775 7.0285 101.608 7.036 101.409 7.045C100.61 7.0825 100.066 7.2085 99.5879 7.39374C99.0878 7.58204 98.6348 7.87714 98.2604 8.25847C97.8781 8.63304 97.5822 9.0866 97.3934 9.58744C97.2082 10.0659 97.0822 10.6097 97.0447 11.4084L97.0443 11.4165C97.0355 11.6124 97.0281 11.7759 97.0222 11.9424L97.0169 12.0879C97.0039 12.6348 96.9984 13.1818 97.0004 13.7288V15.2708C96.9991 15.8178 97.0054 16.3649 97.0192 16.9118L97.0229 17.0573L97.0454 17.5912C97.0829 18.39 97.2089 18.9345 97.3942 19.4122C97.5825 19.9129 97.8779 20.3665 98.2596 20.7412C98.6342 21.1226 99.0875 21.4177 99.5879 21.6059C100.066 21.7911 100.611 21.9171 101.409 21.9546C101.587 21.9634 101.765 21.9711 101.943 21.9779L102.088 21.9824C102.635 21.9958 103.183 22.0016 103.73 21.9996H104.712L105.271 21.9989C106.115 21.9974 106.543 21.9921 106.913 21.9816L107.058 21.9771L107.592 21.9546C108.39 21.9171 108.935 21.7911 109.413 21.6059C109.913 21.4178 110.367 21.1227 110.742 20.7412C111.123 20.3664 111.418 19.9128 111.606 19.4122C111.791 18.9337 111.918 18.39 111.956 17.5912L111.956 17.5834C111.965 17.3874 111.972 17.2238 111.978 17.0573L111.983 16.9118C111.996 16.3649 112.002 15.8178 112 15.2708V14.2883L111.999 13.7288C111.998 12.8851 111.993 12.4569 111.982 12.0879L111.978 11.9424C111.972 11.7757 111.964 11.6119 111.955 11.4155L111.955 11.4084C111.918 10.6097 111.792 10.0652 111.606 9.58744C111.418 9.0868 111.123 8.63326 110.742 8.25847C110.325 7.84223 109.908 7.58424 109.413 7.39374C108.935 7.2085 108.39 7.0825 107.592 7.045L107.574 7.04416C107.382 7.03553 107.221 7.02831 107.058 7.0225L106.913 7.01725ZM101.849 11.8482C102.552 11.145 103.506 10.7499 104.5 10.7499C105.495 10.7499 106.449 11.145 107.152 11.8482C107.855 12.5515 108.25 13.5053 108.25 14.4998C108.25 15.4944 107.855 16.4482 107.152 17.1514C106.449 17.8546 105.495 18.2497 104.5 18.2497C103.506 18.2497 102.552 17.8546 101.849 17.1514C101.145 16.4482 100.75 15.4944 100.75 14.4998C100.75 13.5053 101.145 12.5515 101.849 11.8482ZM105.361 12.421C105.089 12.3081 104.796 12.2499 104.501 12.2499C103.904 12.2499 103.332 12.4869 102.91 12.9089C102.488 13.3308 102.251 13.9031 102.251 14.4998C102.251 15.0965 102.488 15.6688 102.91 16.0908C103.332 16.5127 103.904 16.7498 104.501 16.7498C104.796 16.7497 105.089 16.6915 105.362 16.5784C105.635 16.4652 105.883 16.2995 106.092 16.0905C106.301 15.8815 106.466 15.6335 106.579 15.3605C106.692 15.0875 106.751 14.7949 106.751 14.4994C106.751 14.204 106.692 13.9114 106.579 13.6385C106.466 13.3655 106.3 13.1175 106.091 12.9086C105.882 12.6997 105.634 12.534 105.361 12.421ZM107.776 9.89952C107.951 9.72371 108.19 9.62494 108.438 9.62494C108.687 9.62494 108.925 9.72371 109.101 9.89952C109.277 10.0753 109.376 10.3138 109.376 10.5624C109.376 10.811 109.277 11.0495 109.101 11.2253C108.925 11.4011 108.687 11.4999 108.438 11.4999C108.19 11.4999 107.951 11.4011 107.776 11.2253C107.6 11.0495 107.501 10.811 107.501 10.5624C107.501 10.3138 107.6 10.0753 107.776 9.89952Z" fill="#666666"/>
<path fill-rule="evenodd" clip-rule="evenodd" d="M134 28C141.732 28 148 21.732 148 14C148 6.26801 141.732 0 134 0C126.268 0 120 6.26801 120 14C120 21.732 126.268 28 134 28ZM136.313 7.0035C135.824 7.00425 135.335 7.005 134.844 7.01251C134.832 8.58284 134.833 10.1532 134.833 11.725C134.834 12.6681 134.834 13.6117 134.832 14.5562C134.83 14.8507 134.83 15.1449 134.831 15.4388C134.832 16.2612 134.834 17.0819 134.788 17.9061C134.782 18.1356 134.665 18.3373 134.553 18.5322C134.546 18.5444 134.539 18.5565 134.532 18.5686C134.169 19.1623 133.5 19.5686 132.8 19.5748C131.75 19.6686 130.763 18.8061 130.613 17.7811C130.612 17.7287 130.61 17.676 130.609 17.6231C130.599 17.3356 130.59 17.0441 130.7 16.7749C130.857 16.3311 131.157 15.9374 131.55 15.6811C132.094 15.3061 132.819 15.2499 133.438 15.4499C133.438 15.0535 133.445 14.6572 133.452 14.2608C133.461 13.7322 133.47 13.2036 133.463 12.6749C132.107 12.4187 130.657 12.8499 129.619 13.7499C128.707 14.5249 128.119 15.6624 128.007 16.8499C127.994 17.1561 128.001 17.4686 128.013 17.7811C128.144 19.2436 129.032 20.6061 130.294 21.3498C131.057 21.7998 131.95 22.0436 132.844 21.9936C134.3 21.9686 135.719 21.1873 136.538 19.9873C137.044 19.2686 137.331 18.3998 137.381 17.5249C137.393 16.3881 137.393 15.2488 137.392 14.1087C137.392 13.4247 137.392 12.7405 137.394 12.0562C137.719 12.2687 138.05 12.4749 138.406 12.6374C139.225 13.0249 140.131 13.2124 141.031 13.2437V10.7249C140.069 10.6187 139.081 10.3 138.381 9.60621C137.681 8.93123 137.338 7.95625 137.288 7C136.963 7.0025 136.638 7.003 136.313 7.0035Z" fill="#666666"/>
</svg>
