<svg width="100" height="100" viewBox="0 0 100 100" fill="none" xmlns="http://www.w3.org/2000/svg">
<path d="M6 18C6 19.1 5.1 20 4 20C2.9 20 2.01 19.1 2.01 18C2.01 16.9 2.9 16 4 16C5.1 16 6 16.9 6 18ZM14 16C12.9 16 12.01 16.9 12.01 18C12.01 19.1 12.9 20 14 20C15.1 20 16 19.1 16 18C16 16.9 15.1 16 14 16ZM14.396 11C14.851 10.9999 15.2923 10.8447 15.6472 10.56C16.0021 10.2753 16.2493 9.87813 16.348 9.434L18 3H4V2C4 1.46957 3.78929 0.960859 3.41421 0.585786C3.03914 0.210714 2.53043 0 2 0H0V2H2V13C2 13.5304 2.21071 14.0391 2.58579 14.4142C2.96086 14.7893 3.46957 15 4 15H16C16 14.4696 15.7893 13.9609 15.4142 13.5858C15.0391 13.2107 14.5304 13 14 13H4V11H14.396Z" fill="#666666"/>
<path d="M27.9719 9H20C20.5033 3.947 24.7769 0 29.9749 0C35.5118 0 40 4.477 40 10C40 15.523 35.5118 20 29.9749 20C24.7769 20 20.5033 16.053 20 11H27.9699V14L32.9825 10L27.9699 6L27.9719 9Z" fill="#666666"/>
<path d="M79.1667 23.3333C79.8087 23.3337 80.426 23.581 80.8906 24.024C81.3553 24.4671 81.6317 25.0719 81.6625 25.7132C81.6934 26.3545 81.4763 26.9831 81.0564 27.4687C80.6364 27.9543 80.0457 28.2597 79.4067 28.3217L79.1667 28.3333H52.5C51.858 28.333 51.2407 28.0857 50.776 27.6426C50.3114 27.1996 50.035 26.5948 50.0041 25.9535C49.9733 25.3122 50.1903 24.6836 50.6103 24.198C51.0303 23.7124 51.621 23.407 52.26 23.345L52.5 23.3333H79.1667ZM79.1667 11.6667C79.8297 11.6667 80.4656 11.9301 80.9344 12.3989C81.4033 12.8677 81.6667 13.5036 81.6667 14.1667C81.6667 14.8297 81.4033 15.4656 80.9344 15.9344C80.4656 16.4033 79.8297 16.6667 79.1667 16.6667H52.5C51.837 16.6667 51.2011 16.4033 50.7322 15.9344C50.2634 15.4656 50 14.8297 50 14.1667C50 13.5036 50.2634 12.8677 50.7322 12.3989C51.2011 11.9301 51.837 11.6667 52.5 11.6667H79.1667ZM79.1667 0C79.8297 0 80.4656 0.263392 80.9344 0.732233C81.4033 1.20107 81.6667 1.83696 81.6667 2.5C81.6667 3.16304 81.4033 3.79893 80.9344 4.26777C80.4656 4.73661 79.8297 5 79.1667 5H52.5C51.837 5 51.2011 4.73661 50.7322 4.26777C50.2634 3.79893 50 3.16304 50 2.5C50 1.83696 50.2634 1.20107 50.7322 0.732233C51.2011 0.263392 51.837 0 52.5 0H79.1667Z" fill="black"/>
</svg>
